HIERARCHY
ROOT link
{
	OFFSET 0.000000 0.000000 0.000000
	CHANNELS 6 Xposition Yposition Zposition Xrotation Yrotation Zrotation
	JOINT joint2
	{
		OFFSET 7.910163 -29.647213 0.000000
		CHANNELS 3 Xrotation Yrotation Zrotation
		JOINT joint3
		{
			OFFSET -0.765209 -29.490231 -4.487917
			CHANNELS 3 Xrotation Yrotation Zrotation
			JOINT joint4
			{
				OFFSET 11.876042 -21.527245 -54.149216
				CHANNELS 3 Xrotation Yrotation Zrotation
				JOINT joint4a
				{
					OFFSET 0.611683 -24.803169 -7.433304
					CHANNELS 3 Xrotation Yrotation Zrotation
					JOINT joint4a1
					{
						OFFSET -0.008932 -49.433296 11.898338
						CHANNELS 3 Xrotation Yrotation Zrotation
						JOINT joint4a2
						{
							OFFSET -0.002558 -62.577881 -7.660591
							CHANNELS 3 Xrotation Yrotation Zrotation
							JOINT joint4a3
							{
								OFFSET -1.566000 -54.422394 -17.650642
								CHANNELS 3 Xrotation Yrotation Zrotation
								End Site
								{
									OFFSET -0.038080 0.762085 0.000000
								}
							}
						}
					}
				}
			}
			JOINT joint5
			{
				OFFSET 31.862122 -28.738518 -23.948040
				CHANNELS 3 Xrotation Yrotation Zrotation
				JOINT joint5a
				{
					OFFSET 1.172619 -50.284882 -0.229141
					CHANNELS 3 Xrotation Yrotation Zrotation
					JOINT joint5a1
					{
						OFFSET -32.693325 -61.097061 14.216507
						CHANNELS 3 Xrotation Yrotation Zrotation
						JOINT joint5a2
						{
							OFFSET -11.011783 -43.563400 4.224576
							CHANNELS 3 Xrotation Yrotation Zrotation
							JOINT joint5a3
							{
								OFFSET 7.453790 -51.190231 -2.900403
								CHANNELS 3 Xrotation Yrotation Zrotation
								End Site
								{
									OFFSET 0.000000 0.763031 0.000000
								}
							}
						}
					}
				}
			}
			JOINT joint6
			{
				OFFSET 10.613761 -31.405396 -27.997583
				CHANNELS 3 Xrotation Yrotation Zrotation
				JOINT joint6a
				{
					OFFSET -0.361006 -48.264809 6.695219
					CHANNELS 3 Xrotation Yrotation Zrotation
					JOINT joint6a1
					{
						OFFSET 0.162048 -40.063477 -9.586878
						CHANNELS 3 Xrotation Yrotation Zrotation
						End Site
						{
							OFFSET 0.000000 0.763031 0.000000
						}
					}
				}
			}
			JOINT joint7
			{
				OFFSET -9.634539 -29.923943 -19.639193
				CHANNELS 3 Xrotation Yrotation Zrotation
				JOINT joint7a
				{
					OFFSET -5.669586 -39.397995 -1.828802
					CHANNELS 3 Xrotation Yrotation Zrotation
					JOINT joint7a1
					{
						OFFSET 15.224179 -38.845001 2.893606
						CHANNELS 3 Xrotation Yrotation Zrotation
						JOINT joint7a2
						{
							OFFSET -1.616074 -49.579575 0.150684
							CHANNELS 3 Xrotation Yrotation Zrotation
							JOINT joint7a3
							{
								OFFSET 24.514688 -34.383972 3.975182
								CHANNELS 3 Xrotation Yrotation Zrotation
								End Site
								{
									OFFSET 0.000000 0.763031 0.000000
								}
							}
						}
					}
				}
			}
			JOINT joint8
			{
				OFFSET 23.714115 -17.598518 20.753933
				CHANNELS 3 Xrotation Yrotation Zrotation
				JOINT joint8a
				{
					OFFSET -4.934410 -73.692993 -6.832832
					CHANNELS 3 Xrotation Yrotation Zrotation
					JOINT joint8a1
					{
						OFFSET -6.593788 -52.225082 -9.382070
						CHANNELS 3 Xrotation Yrotation Zrotation
						JOINT joint8a2
						{
							OFFSET 3.179785 -61.204361 3.574597
							CHANNELS 3 Xrotation Yrotation Zrotation
							End Site
							{
								OFFSET 0.000000 0.763031 0.000000
							}
						}
					}
				}
			}
			JOINT joint9
			{
				OFFSET -23.074188 -2.172672 16.890882
				CHANNELS 3 Xrotation Yrotation Zrotation
				JOINT joint9a
				{
					OFFSET -6.647130 -36.311481 2.128831
					CHANNELS 3 Xrotation Yrotation Zrotation
					JOINT joint9a1
					{
						OFFSET 24.497482 -26.322739 -14.164160
						CHANNELS 3 Xrotation Yrotation Zrotation
						JOINT joint9a2
						{
							OFFSET 19.347090 -43.331848 -12.072575
							CHANNELS 3 Xrotation Yrotation Zrotation
							JOINT joint9a3
							{
								OFFSET 21.553276 -58.974991 -12.953063
								CHANNELS 3 Xrotation Yrotation Zrotation
								JOINT joint9a4
								{
									OFFSET 2.656143 -59.321213 -4.170506
									CHANNELS 3 Xrotation Yrotation Zrotation
									End Site
									{
										OFFSET 0.000000 0.763031 0.000000
									}
								}
							}
						}
					}
				}
			}
			JOINT joint10
			{
				OFFSET 6.606427 -24.280525 18.128487
				CHANNELS 3 Xrotation Yrotation Zrotation
				JOINT joint10a
				{
					OFFSET 8.306427 -39.993912 -11.374294
					CHANNELS 3 Xrotation Yrotation Zrotation
					JOINT joint10a1
					{
						OFFSET -10.676137 -45.734467 7.576664
						CHANNELS 3 Xrotation Yrotation Zrotation
						End Site
						{
							OFFSET 0.000000 0.763031 0.000000
						}
					}
				}
			}
		}
	}
}
MOTION
Frames: 7
Frame Time: 0.041667
0.000000 0.000000 0.000000 -0.000000 0.000000 -0.000000 -6.844381 0.000000 -0.000000 -0.000000 1.633216 -0.000000 -0.000000 -0.000000 -0.000000 -0.000000 -0.000000 -0.000000 -8.134109 -0.000000 -0.000000 -8.197304 -0.000000 -0.000000 -0.000001 0.000000 -0.003205 -0.000000 -0.000000 -0.000000 5.296366 2.258555 23.029089 0.000000 -0.000000 0.000001 0.000000 -0.000000 0.000001 0.000000 -0.000000 0.000001 -0.000000 -0.000000 -0.000000 -22.198620 0.000000 0.000000 0.000001 -0.000000 -0.000000 -0.000000 -0.000000 -0.000000 0.076949 -0.000000 -0.000000 -0.000000 -0.000000 -0.000000 -0.000000 -0.000000 -0.000000 0.000000 -0.000000 -0.000000 -0.000000 -0.000000 -0.000000 -0.000000 -0.000000 -0.000000 -0.000000 -0.000000 -0.000000 -0.000000 -0.000000 -0.000000 -0.000000 -0.000000 -0.000000 -12.068715 4.977632 -29.662955 -0.000000 0.000001 11.953679 0.000001 -0.000001 -0.000001 0.000001 -0.000001 -0.000001 0.000001 -0.000001 -0.000001 -43.681911 5.617932 -21.822236 0.000001 -0.000000 -0.000001 0.000001 -0.000000 -0.000001 
0.000000 0.000000 0.000000 -0.000000 0.000000 -0.000000 -6.830344 0.000000 -0.000000 0.000000 1.402371 -0.000000 0.000000 0.000000 0.000000 0.000000 0.000000 0.000000 -8.116518 0.000000 -0.000000 -8.341059 -0.000000 -0.000000 -0.000001 -0.000000 -0.003205 0.000000 0.000000 0.000000 5.299304 2.260728 23.057967 0.000000 -0.000000 -0.045436 -0.000000 0.000000 -0.000001 -0.000000 0.000000 -0.000001 0.248603 0.072502 -0.444303 -22.198622 -0.000000 -0.000000 -0.000002 0.000000 0.000000 0.000000 0.000000 -0.024465 0.076948 -0.000069 -0.094423 -0.000000 -0.000000 0.000000 -0.000000 -0.000000 -0.118889 0.000000 -0.000000 -0.000000 0.000000 0.000000 0.000000 0.000000 0.000000 0.000000 0.000000 0.000000 0.000000 0.000000 0.000000 0.000000 0.000000 0.000000 0.000000 -12.066656 4.986690 -29.651395 -0.000000 -0.000000 11.953679 0.000002 0.000000 -0.003496 0.000002 -0.000000 0.010485 0.000000 -0.000000 0.000001 -43.659280 5.675503 -21.768436 0.017542 -0.286757 0.024497 -0.000000 -0.000001 -0.000001 
0.000000 0.000000 0.000000 -0.000000 0.000000 -0.000000 -6.812984 0.000000 -0.000000 -0.000000 1.175079 -0.000000 -0.000000 -0.000000 -0.000000 -0.000000 -0.000000 -0.000000 -8.070968 -0.000000 -0.000000 -8.547786 0.000000 0.000000 -0.000001 0.000000 -0.003205 -0.000000 -0.000000 -0.000000 5.308771 2.266302 23.060848 -0.000000 -0.000000 -0.122382 -0.000000 0.000000 -0.000000 -0.000000 0.000000 -0.000000 0.872823 0.197647 -1.141602 -22.198624 0.000000 0.000000 0.000001 0.000000 -0.000000 -0.000000 -0.000000 -0.104909 0.076948 -0.000264 -0.367209 0.000000 0.000000 0.000000 0.000000 0.000000 -0.332201 0.000000 -0.000000 0.000000 -0.000000 -0.000000 -0.000000 -0.000000 -0.000000 -0.000000 -0.000000 -0.000000 -0.000000 -0.000000 -0.000000 -0.000000 -0.000000 -0.000000 -0.000000 -12.059396 5.001894 -29.613033 0.000003 0.000001 11.960782 -0.000001 0.000000 -0.027961 0.000000 0.000000 0.041940 -0.000002 0.000000 -0.000002 -43.487534 5.686830 -21.631925 0.073930 -0.566477 0.094803 0.000001 0.000000 0.000001 
0.000000 0.000000 0.000000 -0.000000 0.000000 -0.000000 -6.795393 0.000000 -0.000000 -0.000000 0.947730 -0.000000 0.000000 -0.000000 -0.000000 0.000000 -0.000000 -0.000000 -7.997458 -0.000000 0.000000 -8.807447 0.000000 -0.000000 -0.000001 -0.000000 -0.003205 0.000000 -0.000000 -0.000000 5.319517 2.267406 23.039152 -0.000000 0.000000 -0.227291 0.000000 0.000000 0.003495 -0.000000 0.000000 0.000001 1.839209 0.351634 -2.065834 -22.198620 0.000000 -0.000000 0.000001 0.000000 -0.000000 0.000000 -0.000000 -0.230787 0.076948 -0.000560 -0.800880 -0.000000 -0.000000 0.000000 -0.000000 -0.000000 -0.636499 -0.000000 0.000000 -0.000000 0.000000 -0.000000 -0.000000 0.000000 -0.000000 -0.000000 0.000000 -0.000000 -0.000000 0.000000 -0.000000 -0.000000 0.000000 -0.000000 -0.000000 -12.046417 5.028400 -29.556749 0.000001 0.000001 11.974990 0.000000 -0.000000 -0.076945 0.000000 0.000000 0.090928 0.000003 0.000000 -0.000000 -43.063294 5.565154 -21.379641 0.165964 -0.838999 0.214573 0.000002 -0.000001 0.000001 
0.000000 0.000000 0.000000 -0.000000 0.000000 -0.000000 -6.774308 0.000000 -0.000000 -0.000000 0.723932 -0.000000 -0.000000 -0.000000 -0.000000 -0.000000 -0.000000 -0.000000 -7.902806 -0.000000 0.000000 -9.109054 0.000000 0.000000 -0.000001 0.000000 -0.003205 -0.000000 -0.000000 -0.000000 5.340406 2.272931 22.992678 0.000000 0.000000 -0.363713 -0.000000 0.000000 0.006988 -0.000000 -0.000000 -0.000002 3.110479 0.501224 -3.194015 -22.198620 -0.000000 -0.000000 0.000002 -0.000000 0.000000 -0.000000 -0.000000 -0.405654 0.076949 -0.000929 -1.374412 -0.000000 0.000000 -0.000000 -0.000000 0.000000 -1.021183 -0.000000 0.000000 0.000000 -0.000000 -0.000000 -0.000000 -0.000000 -0.000000 -0.000000 -0.000000 -0.000000 -0.000000 -0.000000 -0.000000 -0.000000 -0.000000 -0.000000 -0.000000 -12.030919 5.065462 -29.473438 0.000001 0.000001 11.988858 0.000002 0.000000 -0.143355 0.000001 0.000000 0.164379 0.000001 -0.000000 0.000001 -42.400479 5.322440 -21.025773 0.293870 -1.097170 0.373521 0.000000 -0.000001 0.000002 
0.000000 0.000000 0.000000 -0.000000 0.000000 -0.000000 -6.746405 0.000000 -0.000000 -0.000000 0.503573 -0.000000 -0.000000 -0.000000 -0.000000 -0.000000 -0.000000 -0.000000 -7.783575 0.000000 -0.000000 -9.431970 0.000000 -0.000000 -0.000000 0.000000 -0.003205 -0.000000 -0.000000 -0.000000 5.365723 2.274611 22.924097 -0.000000 0.000000 -0.524543 0.000000 -0.000000 0.010482 -0.000000 -0.000000 -0.000002 4.648759 0.615930 -4.499197 -22.198620 0.000000 0.000000 0.000001 0.000000 0.000000 -0.000000 -0.000000 -0.622461 0.076947 -0.001410 -2.073878 -0.000000 0.000000 0.000000 -0.000000 0.000000 -1.489805 0.000000 -0.000000 -0.000000 -0.000000 -0.000000 -0.000000 -0.000000 -0.000000 -0.000000 -0.000000 -0.000000 -0.000000 -0.000000 -0.000000 -0.000000 -0.000000 -0.000000 -0.000000 -12.012760 5.113962 -29.370671 0.000003 -0.000001 12.010172 -0.000001 -0.000000 -0.227291 0.000001 -0.000001 0.255312 0.000000 0.000000 -0.000000 -41.523408 4.983476 -20.568638 0.454438 -1.347669 0.575427 -0.000001 0.000000 -0.000002 
0.000000 0.000000 0.000000 -0.000000 0.000000 -0.000000 -6.718273 0.000000 -0.000000 -0.000000 0.283270 -0.000000 0.000000 -0.000000 -0.000000 0.000000 -0.000000 -0.000000 -7.650247 -0.000000 -0.000000 -9.765378 -0.000000 -0.000000 -0.000001 -0.000000 -0.003205 0.000000 -0.000000 -0.000000 5.394995 2.276025 22.834639 -0.000000 -0.000000 -0.706401 -0.000000 -0.000000 0.017473 -0.000000 -0.000000 0.000001 6.411187 0.662033 -5.959202 -22.198620 -0.000000 0.000000 -0.000002 0.000000 -0.000000 0.000000 -0.000000 -0.877772 0.076891 -0.001911 -2.874931 -0.000000 0.000000 0.000000 -0.000000 0.000000 -2.028385 0.000000 0.000000 -0.000000 0.000000 -0.000000 -0.000000 0.000000 -0.000000 -0.000000 0.000000 -0.000000 -0.000000 0.000000 -0.000000 -0.000000 0.000000 -0.000000 -0.000000 -11.985483 5.172124 -29.245593 -0.000000 0.000000 12.031144 0.000000 0.000001 -0.332203 0.000001 0.000000 0.360219 0.000000 -0.000000 -0.000000 -40.454715 4.571417 -20.019660 0.640797 -1.586732 0.813324 -0.000002 -0.000001 0.000001 
